<svg width="45" height="45" fill="none" xmlns="http://www.w3.org/2000/svg"><path d="M41.81 6.328c-2.126-2.076-5.063-3.114-8.814-3.114a10 10 0 0 0-3.176.54c-1.08.36-2.085.846-3.013 1.457-.93.61-1.729 1.184-2.399 1.72A23.196 23.196 0 0 0 22.5 8.638a23.23 23.23 0 0 0-1.908-1.707 32.249 32.249 0 0 0-2.399-1.72 12.857 12.857 0 0 0-3.013-1.457 10.01 10.01 0 0 0-3.177-.54c-3.75 0-6.688 1.038-8.814 3.114C1.063 8.404 0 11.283 0 14.966c0 1.122.197 2.278.59 3.466.394 1.188.842 2.201 1.344 3.038a22.224 22.224 0 0 0 1.707 2.448c.637.796 1.101 1.344 1.394 1.645.293.301.523.519.69.653l15.67 15.117c.301.302.67.453 1.105.453.435 0 .804-.151 1.105-.453l15.644-15.067c3.834-3.833 5.75-7.6 5.75-11.3.001-3.683-1.062-6.562-3.188-8.638Zm-4.745 17.578L22.5 37.943 7.91 23.88c-3.13-3.13-4.695-6.101-4.695-8.914 0-1.356.18-2.553.54-3.59.36-1.038.82-1.863 1.38-2.474a6.634 6.634 0 0 1 2.047-1.494 9.073 9.073 0 0 1 2.36-.779c.77-.134 1.591-.2 2.462-.2.87 0 1.808.213 2.812.64a12.84 12.84 0 0 1 2.775 1.607c.845.645 1.57 1.247 2.172 1.808a19.5 19.5 0 0 1 1.507 1.544c.3.369.711.553 1.23.553s.93-.184 1.23-.553a19.59 19.59 0 0 1 1.507-1.544 29.405 29.405 0 0 1 2.172-1.808c.846-.645 1.77-1.18 2.776-1.607 1.004-.427 1.942-.64 2.812-.64.87 0 1.69.066 2.46.2a9.057 9.057 0 0 1 2.361.779 6.634 6.634 0 0 1 2.047 1.494c.56.61 1.021 1.436 1.381 2.473.36 1.038.54 2.235.54 3.591 0 2.813-1.574 5.793-4.721 8.94Z" fill="#fff"/></svg>