<svg width="45" height="45" fill="none" xmlns="http://www.w3.org/2000/svg"><path d="M34.317 11.845c-.27-.27-.577-.405-.92-.406-.073 0-.18.018-.325.054l-10.709 2.65 4.624-12.52c.09-.18.136-.343.136-.487 0-.307-.118-.572-.352-.798A1.2 1.2 0 0 0 25.906 0h-8.87c-.288 0-.54.081-.757.243a1.16 1.16 0 0 0-.433.622l-5.435 22.311c-.09.433.026.784.351 1.055.234.199.513.297.838.297.144 0 .253-.008.325-.026l10.98-2.732-5.328 21.851c-.072.288-.032.559.122.811.153.253.383.424.69.514.18.036.306.054.378.054.523 0 .901-.225 1.136-.676l14.603-31.289c.198-.433.136-.83-.19-1.19Z" fill="#fff"/></svg>