<svg width="50" height="45" fill="none" xmlns="http://www.w3.org/2000/svg"><g clip-path="url(#a)" fill="#fff"><path d="m46.239 12.209-.002-.035c-.021-.433-.036-.89-.044-1.399-.041-2.48-2.233-4.533-4.99-4.672-5.749-.289-10.196-1.976-13.996-5.31l-.032-.027c-1.24-1.023-3.11-1.023-4.349 0l-.032.028c-3.8 3.333-8.247 5.02-13.996 5.31-2.757.138-4.949 2.19-4.99 4.672a41.75 41.75 0 0 1-.045 1.398l-.002.081c-.112 5.276-.25 11.842 2.19 17.802a22.55 22.55 0 0 0 6.04 8.468c3.037 2.666 7.014 4.784 11.822 6.292a3.984 3.984 0 0 0 2.377 0c4.802-1.512 8.775-3.63 11.809-6.297a22.582 22.582 0 0 0 6.04-8.47c2.45-5.977 2.311-12.556 2.2-17.841Zm-4.953 16.928c-2.574 6.281-7.828 10.595-16.064 13.187a.733.733 0 0 1-.443 0c-8.244-2.587-13.503-6.898-16.075-13.18-2.25-5.494-2.122-11.521-2.01-16.838l.001-.03c.023-.457.038-.936.047-1.462.018-1.101.993-2.013 2.22-2.074 3.253-.164 6.11-.73 8.737-1.73 2.622-.999 4.951-2.407 7.12-4.305a.293.293 0 0 1 .363 0c2.169 1.898 4.498 3.306 7.12 4.305 2.626 1 5.484 1.566 8.738 1.73 1.226.061 2.201.973 2.219 2.075.009.529.024 1.007.047 1.461.112 5.323.236 11.356-2.02 16.86Z"/><path d="M25 11.286c-6.871 0-12.461 5.031-12.461 11.215s5.59 11.215 12.46 11.215c6.871 0 12.461-5.031 12.461-11.215S31.87 11.286 25 11.286Zm0 19.789c-5.253 0-9.527-3.846-9.527-8.574s4.274-8.574 9.527-8.574c5.253 0 9.526 3.846 9.526 8.574S30.252 31.075 25 31.075Z"/><path d="m28.58 19.019-5.787 5.209-1.57-1.414a1.585 1.585 0 0 0-2.075 0 1.23 1.23 0 0 0 0 1.867l2.608 2.348c.287.258.662.386 1.037.386a1.55 1.55 0 0 0 1.038-.386l6.825-6.143a1.23 1.23 0 0 0 0-1.867 1.584 1.584 0 0 0-2.075 0Z"/></g><defs><clipPath id="a"><path fill="#fff" d="M0 0h50v45H0z"/></clipPath></defs></svg>