<svg width="24" height="24" viewBox="0 0 24 24" fill="none" xmlns="http://www.w3.org/2000/svg">
<path d="M14.9941 11.9998C14.9941 16.1424 11.6382 19.4991 7.49707 19.4991C3.35591 19.4991 0 16.1417 0 11.9998C0 7.85788 3.35673 4.50049 7.49707 4.50049C11.6374 4.50049 14.9941 7.85788 14.9941 11.9998Z" fill="#E2574C"/>
<path d="M16.5008 4.50049C14.8194 4.50049 13.2715 5.0607 12.0207 5.99589L12.0267 5.99663C12.2727 6.23433 12.5441 6.40163 12.7533 6.67528L11.1935 6.70003C10.949 6.94679 10.7263 7.21525 10.5163 7.49425H13.267C13.4762 7.74544 13.6697 7.96373 13.8452 8.24116H10.0176C9.87737 8.48265 9.74766 8.73089 9.6344 8.98882H14.281C14.4025 9.24602 14.5112 9.4403 14.6035 9.71255H9.35919C9.27595 9.97131 9.20472 10.236 9.15068 10.5059H14.8232C14.8787 10.7654 14.9214 11.0054 14.9507 11.2499H9.03816C9.01341 11.4966 9.00066 11.7471 9.00066 11.9999H14.9934C14.9934 12.2654 14.9746 12.5113 14.9476 12.7498H9.03816C9.06366 13.0041 9.10117 13.2538 9.15068 13.4998H14.8141C14.7557 13.7427 14.6881 13.9872 14.6034 14.2407H9.34191C9.42137 14.4971 9.51818 14.7461 9.62387 14.9891H14.281C14.152 15.2621 14.0058 15.4803 13.8446 15.736H10.0042C10.1557 15.9985 10.3229 16.2489 10.5044 16.4889L13.2671 16.5301C13.0316 16.8128 12.7294 16.9831 12.4541 17.2306C12.4691 17.2426 12.0139 17.2291 11.1177 17.2149C12.4811 18.6218 14.3867 19.4991 16.5007 19.4991C20.6426 19.4991 24 16.1417 24 11.9999C24 7.85804 20.6433 4.50049 16.5008 4.50049Z" fill="#F4B459"/>
</svg>
