<svg width="66" height="60" viewBox="0 0 66 60" fill="none" xmlns="http://www.w3.org/2000/svg">
<g clip-path="url(#clip0_71_365)">
<path d="M51.0191 26.3335H47.4572C47.2477 26.3335 47.0381 26.524 46.9334 26.7144L45.4667 35.0954C45.4667 35.2859 45.5715 35.3811 45.781 35.3811H47.6667C47.8762 35.3811 47.981 35.2859 47.981 35.0954L48.4 32.7144C48.4 32.524 48.6096 32.3335 48.9238 32.3335H50.0762C52.4858 32.3335 53.8477 31.2859 54.1619 29.1906C54.3715 28.3335 54.1619 27.5716 53.7429 27.0954C53.1143 26.6192 52.1715 26.3335 51.0191 26.3335ZM51.4381 29.4764C51.2286 30.6192 50.2858 30.6192 49.3429 30.6192H48.7143L49.1334 28.4287C49.1334 28.3335 49.2381 28.2383 49.4477 28.2383H49.6572C50.2858 28.2383 50.9143 28.2383 51.2286 28.6192C51.4381 28.7144 51.4381 29.0002 51.4381 29.4764Z" fill="#139AD6"/>
<path d="M25.3524 26.3335H21.7905C21.5809 26.3335 21.3714 26.524 21.2667 26.7144L19.8 35.0954C19.8 35.2859 19.9048 35.3811 20.1143 35.3811H21.7905C22 35.3811 22.2095 35.1906 22.3143 35.0002L22.7333 32.7144C22.7333 32.524 22.9429 32.3335 23.2571 32.3335H24.4095C26.819 32.3335 28.1809 31.2859 28.4952 29.1906C28.7048 28.3335 28.4952 27.5716 28.0762 27.0954C27.4476 26.6192 26.6095 26.3335 25.3524 26.3335ZM25.7714 29.4764C25.5619 30.6192 24.619 30.6192 23.6762 30.6192H23.1524L23.5714 28.4287C23.5714 28.3335 23.6762 28.2383 23.8857 28.2383H24.0952C24.7238 28.2383 25.3524 28.2383 25.6667 28.6192C25.7714 28.7144 25.8762 29.0002 25.7714 29.4764Z" fill="#263B80"/>
<path d="M36.1428 29.3809H34.4666C34.3618 29.3809 34.1523 29.4761 34.1523 29.5714L34.0476 30.0476L33.9428 29.8571C33.5238 29.3809 32.7904 29.1904 31.9523 29.1904C30.0666 29.1904 28.3904 30.5238 28.0761 32.3333C27.8666 33.2857 28.1809 34.1428 28.7047 34.7142C29.2285 35.2857 29.9619 35.4761 30.9047 35.4761C32.4761 35.4761 33.3142 34.619 33.3142 34.619L33.2095 35.0952C33.2095 35.2857 33.3142 35.3809 33.5238 35.3809H35.0952C35.3047 35.3809 35.5142 35.1904 35.619 35L36.5618 29.6666C36.4571 29.5714 36.2476 29.3809 36.1428 29.3809ZM33.7333 32.4285C33.5238 33.2857 32.7904 33.9523 31.7428 33.9523C31.219 33.9523 30.7999 33.7619 30.5904 33.5714C30.3809 33.2857 30.2761 32.9047 30.2761 32.4285C30.3809 31.5714 31.219 30.9047 32.1618 30.9047C32.6857 30.9047 32.9999 31.0952 33.3142 31.2857C33.6285 31.5714 33.7333 32.0476 33.7333 32.4285Z" fill="#263B80"/>
<path d="M61.7048 29.3809H60.0286C59.9238 29.3809 59.7143 29.4761 59.7143 29.5714L59.6095 30.0476L59.5048 29.8571C59.0857 29.3809 58.3524 29.1904 57.5143 29.1904C55.6286 29.1904 53.9524 30.5238 53.6381 32.3333C53.4286 33.2857 53.7428 34.1428 54.2667 34.7142C54.7905 35.2857 55.5238 35.4761 56.4667 35.4761C58.0381 35.4761 58.8762 34.619 58.8762 34.619L58.7714 35.0952C58.7714 35.2857 58.8762 35.3809 59.0857 35.3809H60.6571C60.8667 35.3809 61.0762 35.1904 61.1809 35L62.1238 29.6666C62.019 29.5714 61.9143 29.3809 61.7048 29.3809ZM59.2952 32.4285C59.0857 33.2857 58.3524 33.9523 57.3048 33.9523C56.7809 33.9523 56.3619 33.7619 56.1524 33.5714C55.9428 33.2857 55.8381 32.9047 55.8381 32.4285C55.9428 31.5714 56.7809 30.9047 57.7238 30.9047C58.2476 30.9047 58.5619 31.0952 58.8762 31.2857C59.2952 31.5714 59.4 32.0476 59.2952 32.4285Z" fill="#139AD6"/>
<path d="M45.2572 29.3809H43.4762C43.2667 29.3809 43.1619 29.4761 43.0572 29.5713L40.7524 32.8094L39.7048 29.7618C39.6 29.5713 39.4953 29.4761 39.181 29.4761H37.5048C37.2953 29.4761 37.1905 29.6666 37.1905 29.857L39.0762 34.9047L37.2953 37.1904C37.1905 37.3809 37.2953 37.6666 37.5048 37.6666H39.181C39.3905 37.6666 39.4953 37.5713 39.6 37.4761L45.3619 29.9523C45.6762 29.6666 45.4667 29.3809 45.2572 29.3809Z" fill="#263B80"/>
<path d="M63.6953 26.619L62.2286 35.1904C62.2286 35.3809 62.3334 35.4761 62.5429 35.4761H64.0095C64.2191 35.4761 64.4286 35.2856 64.5333 35.0951L66 26.7142C66 26.5237 65.8952 26.4285 65.6857 26.4285H64.0095C63.9048 26.3332 63.8 26.4285 63.6953 26.619Z" fill="#139AD6"/>
<path d="M12.0476 23.4764C11.3143 22.7144 9.95238 22.3335 8.06667 22.3335H2.82857C2.51429 22.3335 2.2 22.6192 2.09524 22.9049L0 35.3811C0 35.6668 0.209524 35.8573 0.419048 35.8573H3.66667L4.50476 31.1906V31.3811C4.60952 31.0954 4.92381 30.8097 5.2381 30.8097H6.80953C9.84762 30.8097 12.1524 29.6668 12.8857 26.524C12.8857 26.4287 12.8857 26.3335 12.8857 26.2383C12.781 26.2383 12.781 26.2383 12.8857 26.2383C12.9905 25.0002 12.781 24.2383 12.0476 23.4764Z" fill="#263B80"/>
<path d="M12.781 26.2383C12.781 26.3335 12.781 26.4288 12.781 26.524C12.0477 29.7621 9.74292 30.8097 6.70482 30.8097H5.13339C4.81911 30.8097 4.50482 31.0954 4.40006 31.3811L3.35244 37.1907C3.35244 37.3811 3.4572 37.5716 3.77149 37.5716H6.4953C6.80958 37.5716 7.12387 37.3811 7.12387 37.0954V37.0002L7.64768 34.0478V33.8573C7.64768 33.5716 7.96196 33.3811 8.27625 33.3811H8.6953C11.3143 33.3811 13.4096 32.4288 13.9334 29.5716C14.1429 28.4288 14.0382 27.3811 13.4096 26.7145C13.3048 26.524 13.0953 26.3335 12.781 26.2383Z" fill="#139AD6"/>
<path d="M12.0476 25.9522C11.9428 25.9522 11.8381 25.857 11.7333 25.857C11.6285 25.857 11.5238 25.857 11.419 25.7617C11 25.6665 10.5809 25.6665 10.0571 25.6665H5.9714C5.86664 25.6665 5.76188 25.6665 5.65712 25.7617C5.44759 25.857 5.34283 26.0475 5.34283 26.2379L4.50474 31.1903V31.3808C4.6095 31.0951 4.92379 30.8094 5.23807 30.8094H6.8095C9.84759 30.8094 12.1524 29.6665 12.8857 26.5236C12.8857 26.4284 12.8857 26.3332 12.9905 26.2379C12.7809 26.1427 12.6762 26.0475 12.4666 26.0475C12.1524 25.9522 12.1524 25.9522 12.0476 25.9522Z" fill="#232C65"/>
</g>
<defs>
<clipPath id="clip0_71_365">
<rect width="66" height="60" fill="white"/>
</clipPath>
</defs>
</svg>
