<svg width="40" height="40" viewBox="0 0 40 40" fill="none" xmlns="http://www.w3.org/2000/svg">
<path d="M16.3501 13.7412L14.3425 26.2338H17.5513L19.5576 13.7412H16.3501ZM26.0288 18.83C24.9075 18.2762 24.2201 17.9025 24.2201 17.3362C24.2338 16.8212 24.8014 16.2937 26.0689 16.2937C27.1114 16.2675 27.8776 16.5125 28.4589 16.7563L28.7501 16.8862L29.1863 14.2725C28.5525 14.0275 27.5476 13.7575 26.3063 13.7575C23.1376 13.7575 20.9063 15.405 20.8925 17.7613C20.8663 19.5001 22.4899 20.465 23.705 21.0438C24.9463 21.6376 25.3689 22.0226 25.3689 22.5501C25.3551 23.3601 24.3652 23.7338 23.4414 23.7338C22.1615 23.7338 21.4739 23.5413 20.4302 23.09L20.0077 22.8975L19.5589 25.6138C20.3127 25.9489 21.6989 26.2438 23.1377 26.2589C26.5052 26.2589 28.6965 24.6363 28.724 22.1251C28.735 20.7476 27.8788 19.6925 26.0288 18.83ZM37.4126 13.7799H34.93C34.165 13.7799 33.5837 13.9999 33.2525 14.7849L28.4862 26.2338H31.8537L32.7811 23.7551H36.5487L37.0299 26.2438H40L37.4126 13.7799ZM33.7151 21.2536C33.78 21.2599 35.0076 17.2073 35.0076 17.2073L35.9851 21.2536C35.9851 21.2536 34.3488 21.2536 33.7151 21.2536ZM11.6613 13.7412L8.51756 22.2288L8.17509 20.5549C7.5938 18.6236 5.77137 16.525 3.73753 15.4825L6.6163 26.2213H10.0114L15.0564 13.7426H11.6613V13.7412Z" fill="#2394BC"/>
<path d="M7.11753 15.3528C6.87254 14.4003 6.09122 13.7579 5.03009 13.7441H0.0512743L0 13.9753C3.88382 14.9328 7.14372 17.879 8.20129 20.6503L7.11753 15.3528Z" fill="#EFC75E"/>
</svg>
