<svg width="24" height="24" fill="none" xmlns="http://www.w3.org/2000/svg"><path d="M14.994 12A7.497 7.497 0 1 1 0 12a7.498 7.498 0 1 1 14.994 0Z" fill="#E2574C"/><path d="M16.5 4.5c-1.68 0-3.229.56-4.48 1.496h.007c.246.238.517.406.726.68l-1.56.024a7.707 7.707 0 0 0-.677.794h2.751c.21.251.403.47.578.747h-3.827c-.14.242-.27.49-.384.748h4.647c.121.257.23.451.322.724H9.36a7.224 7.224 0 0 0-.208.793h5.672c.056.26.098.5.128.744H9.038a7.516 7.516 0 0 0-.037.75h5.992c0 .265-.018.511-.045.75h-5.91c.026.254.063.504.113.75h5.663a8.832 8.832 0 0 1-.21.74H9.341c.08.257.176.506.282.75h4.657c-.129.272-.275.49-.436.746h-3.84c.15.262.318.513.5.753l2.762.041c-.235.283-.538.453-.813.7.015.013-.44 0-1.336-.015a7.472 7.472 0 0 0 5.383 2.284 7.5 7.5 0 1 0 0-14.999Z" fill="#F4B459"/></svg>