<svg width="66" height="60" fill="none" xmlns="http://www.w3.org/2000/svg"><g clip-path="url(#a)"><path d="M51.02 26.334h-3.563c-.21 0-.419.19-.524.38l-1.466 8.381c0 .19.105.286.314.286h1.886c.21 0 .314-.095.314-.286l.419-2.38c0-.191.21-.382.524-.382h1.152c2.41 0 3.772-1.047 4.086-3.142.21-.857 0-1.62-.42-2.096-.628-.476-1.57-.761-2.723-.761Zm.418 3.142c-.21 1.143-1.152 1.143-2.095 1.143h-.629l.42-2.19c0-.095.104-.19.314-.19h.21c.628 0 1.256 0 1.57.38.21.095.21.381.21.857Z" fill="#139AD6"/><path d="M25.352 26.334h-3.561c-.21 0-.42.19-.524.38L19.8 35.095c0 .19.105.286.314.286h1.677c.209 0 .418-.19.523-.38l.42-2.287c0-.19.209-.38.523-.38h1.152c2.41 0 3.772-1.048 4.086-3.143.21-.857 0-1.62-.419-2.096-.628-.476-1.466-.761-2.724-.761Zm.42 3.142c-.21 1.143-1.153 1.143-2.096 1.143h-.524l.42-2.19c0-.095.104-.19.314-.19h.21c.628 0 1.256 0 1.57.38.105.095.21.381.105.857Zm10.371-.096h-1.676c-.105 0-.315.096-.315.191l-.104.477-.105-.19c-.42-.477-1.153-.668-1.99-.668-1.886 0-3.563 1.334-3.877 3.143-.21.953.105 1.81.629 2.381.524.572 1.257.762 2.2.762 1.571 0 2.41-.857 2.41-.857l-.105.476c0 .19.104.286.314.286h1.571c.21 0 .42-.19.524-.381l.943-5.333c-.105-.096-.314-.286-.42-.286Zm-2.41 3.049c-.21.857-.943 1.523-1.99 1.523-.524 0-.943-.19-1.153-.38-.21-.286-.314-.667-.314-1.144.105-.857.943-1.523 1.886-1.523.524 0 .838.19 1.152.38.315.286.42.763.42 1.143Z" fill="#263B80"/><path d="M61.705 29.38h-1.676c-.105 0-.315.096-.315.191l-.105.477-.104-.19c-.42-.477-1.153-.668-1.99-.668-1.886 0-3.563 1.334-3.877 3.143-.21.953.105 1.81.629 2.381.523.572 1.257.762 2.2.762 1.571 0 2.41-.857 2.41-.857l-.106.476c0 .19.105.286.315.286h1.571c.21 0 .42-.19.524-.381l.943-5.333c-.105-.096-.21-.286-.42-.286Zm-2.41 3.049c-.21.857-.943 1.523-1.99 1.523-.524 0-.943-.19-1.153-.38-.21-.286-.314-.667-.314-1.144.105-.857.943-1.523 1.886-1.523.524 0 .838.19 1.152.38.42.286.524.763.42 1.143Z" fill="#139AD6"/><path d="M45.257 29.38h-1.78c-.21 0-.315.096-.42.191l-2.305 3.238-1.047-3.047c-.105-.19-.21-.286-.524-.286h-1.676c-.21 0-.315.19-.315.381l1.886 5.048-1.78 2.285c-.105.19 0 .477.209.477h1.676c.21 0 .314-.096.419-.19l5.762-7.525c.314-.285.105-.571-.105-.571Z" fill="#263B80"/><path d="M63.695 26.619 62.23 35.19c0 .19.104.286.314.286h1.467c.21 0 .419-.19.523-.38L66 26.713c0-.19-.105-.285-.314-.285h-1.677c-.104-.096-.209 0-.314.19Z" fill="#139AD6"/><path d="M12.048 23.476c-.734-.762-2.096-1.142-3.981-1.142H2.829c-.315 0-.629.285-.734.57L0 35.382c0 .286.21.476.419.476h3.248l.838-4.666v.19c.105-.286.419-.571.733-.571H6.81c3.038 0 5.342-1.143 6.076-4.286v-.286c-.105 0-.105 0 0 0 .105-1.238-.105-2-.838-2.762Z" fill="#263B80"/><path d="M12.781 26.238v.286c-.733 3.238-3.038 4.286-6.076 4.286H5.133c-.314 0-.628.285-.733.571l-1.048 5.81c0 .19.105.38.42.38h2.723c.315 0 .629-.19.629-.476V37l.524-2.952v-.19c0-.286.314-.477.628-.477h.42c2.618 0 4.714-.952 5.237-3.81.21-1.142.105-2.19-.523-2.857-.105-.19-.315-.38-.629-.476Z" fill="#139AD6"/><path d="M12.048 25.952c-.105 0-.21-.095-.315-.095-.104 0-.21 0-.314-.095-.419-.096-.838-.096-1.362-.096H5.971c-.104 0-.21 0-.314.096a.52.52 0 0 0-.314.476l-.838 4.952v.19c.104-.285.419-.57.733-.57H6.81c3.039 0 5.343-1.143 6.077-4.286 0-.096 0-.19.105-.286-.21-.095-.315-.19-.524-.19-.315-.096-.315-.096-.42-.096Z" fill="#232C65"/></g><defs><clipPath id="a"><path fill="#fff" d="M0 0h66v60H0z"/></clipPath></defs></svg>