<svg width="40" height="40" fill="none" xmlns="http://www.w3.org/2000/svg"><path d="m16.35 13.741-2.008 12.493h3.21l2.006-12.493H16.35Zm9.679 5.089c-1.122-.554-1.809-.927-1.809-1.494.014-.515.581-1.042 1.849-1.042a5.583 5.583 0 0 1 2.39.462l.291.13.436-2.613a8.098 8.098 0 0 0-2.88-.515c-3.168 0-5.4 1.647-5.414 4.003-.026 1.74 1.598 2.704 2.813 3.283 1.241.594 1.664.979 1.664 1.506-.014.81-1.004 1.184-1.928 1.184-1.28 0-1.967-.193-3.01-.644l-.423-.192-.45 2.716c.755.335 2.14.63 3.58.645 3.367 0 5.558-1.623 5.586-4.134.011-1.377-.845-2.433-2.695-3.295Zm11.384-5.05H34.93c-.765 0-1.346.22-1.678 1.005l-4.766 11.449h3.368l.927-2.479h3.768l.48 2.489H40L37.413 13.78Zm-3.698 7.474c.065.006 1.293-4.047 1.293-4.047l.977 4.047h-2.27ZM11.661 13.74l-3.143 8.49-.343-1.674c-.581-1.931-2.404-4.03-4.437-5.072L6.616 26.22h3.395l5.045-12.478h-3.395v-.002Z" fill="#2394BC"/><path d="M7.118 15.353c-.245-.953-1.027-1.595-2.088-1.609H.051L0 13.975c3.884.958 7.144 3.904 8.201 6.675l-1.083-5.297Z" fill="#EFC75E"/></svg>